<svg width="480" height="386" viewBox="0 0 480 386" fill="none" xmlns="http://www.w3.org/2000/svg">
<g clip-path="url(#clip0_231_708)">
<path d="M437.934 26.2406H68.0679V281.306H437.934V26.2406Z" fill="#E6E6E6"/>
<path opacity="0.44" d="M437.934 79.3454H68.0679V281.306H437.934V79.3454Z" fill="#CCCCCC"/>
<path opacity="0.08" d="M423.805 227.616L395.628 267.68H422.148V281.306H437.934L436.943 232.44L423.805 227.616Z" fill="black"/>
<path opacity="0.08" d="M72.6797 100.993C72.6797 100.993 80.345 95.8291 83.934 114.797C87.5231 133.766 76.9995 149.876 102.204 153.773C127.409 157.671 143.908 147.018 149.722 177.289C155.536 207.56 188.276 221.251 177.087 248.615C165.897 275.979 156.559 281.306 156.559 281.306H68.0676C68.0676 281.306 67.4017 111.777 72.6797 100.993Z" fill="black"/>
<path opacity="0.45" d="M81.6283 386.282C147.838 386.282 201.512 382.806 201.512 378.519C201.512 374.232 147.838 370.756 81.6283 370.756C15.4184 370.756 -38.2554 374.232 -38.2554 378.519C-38.2554 382.806 15.4184 386.282 81.6283 386.282Z" fill="#E6E6E6"/>
<path opacity="0.45" d="M435.563 383.651C468.668 383.651 495.505 380.946 495.505 377.609C495.505 374.273 468.668 371.568 435.563 371.568C402.458 371.568 375.621 374.273 375.621 377.609C375.621 380.946 402.458 383.651 435.563 383.651Z" fill="#E6E6E6"/>
<path d="M97.9007 56.7553C101.829 56.7553 105.014 53.5706 105.014 49.6422C105.014 45.7137 101.829 42.5291 97.9007 42.5291C93.9722 42.5291 90.7876 45.7137 90.7876 49.6422C90.7876 53.5706 93.9722 56.7553 97.9007 56.7553Z" fill="#24285B"/>
<path d="M119.061 56.7553C122.99 56.7553 126.174 53.5706 126.174 49.6422C126.174 45.7137 122.99 42.5291 119.061 42.5291C115.133 42.5291 111.948 45.7137 111.948 49.6422C111.948 53.5706 115.133 56.7553 119.061 56.7553Z" fill="#4094F7"/>
<path d="M139.004 56.7553C142.933 56.7553 146.117 53.5706 146.117 49.6422C146.117 45.7137 142.933 42.5291 139.004 42.5291C135.076 42.5291 131.891 45.7137 131.891 49.6422C131.891 53.5706 135.076 56.7553 139.004 56.7553Z" fill="#FFD200"/>
<path d="M476.537 0.999695H339V104.903H476.537V0.999695Z" fill="#24285B"/>
<path d="M27.3053 365.234C27.3053 365.234 25.3078 370.788 20.2896 371.211C15.2715 371.633 13.9723 376.537 18.4708 377.804C22.9692 379.071 34.6133 373.289 34.6133 373.289L34.2723 366.063L27.3053 365.234Z" fill="#4094F7"/>
<path d="M96.163 365.234C96.163 365.234 98.1443 370.788 103.162 371.211C108.181 371.633 109.48 376.537 104.981 377.804C100.483 379.071 88.855 373.289 88.855 373.289L89.1798 366.063L96.163 365.234Z" fill="#4094F7"/>
<path d="M168.724 158.288C168.345 157.911 168.045 157.463 167.841 156.97C167.636 156.477 167.531 155.948 167.531 155.414C167.531 154.88 167.636 154.351 167.841 153.858C168.045 153.364 168.345 152.916 168.724 152.539L192.937 128.342C193.711 127.65 194.72 127.281 195.757 127.31C196.794 127.339 197.78 127.764 198.514 128.498C199.248 129.231 199.673 130.218 199.702 131.255C199.731 132.292 199.362 133.301 198.67 134.074L174.456 158.288C173.695 159.047 172.664 159.473 171.59 159.473C170.515 159.473 169.485 159.047 168.724 158.288Z" fill="white"/>
<path d="M193.327 158.677L169.114 134.464C168.726 134.089 168.418 133.64 168.206 133.145C167.994 132.649 167.882 132.116 167.879 131.577C167.875 131.038 167.978 130.503 168.183 130.005C168.388 129.506 168.69 129.053 169.072 128.673C169.453 128.292 169.907 127.991 170.406 127.788C170.906 127.584 171.44 127.482 171.979 127.488C172.518 127.493 173.051 127.606 173.546 127.819C174.041 128.033 174.489 128.343 174.863 128.731L199.06 152.929C199.448 153.303 199.758 153.75 199.972 154.245C200.185 154.74 200.298 155.273 200.303 155.812C200.309 156.351 200.207 156.886 200.003 157.385C199.8 157.884 199.499 158.338 199.119 158.719C198.738 159.101 198.285 159.403 197.786 159.608C197.288 159.813 196.753 159.916 196.214 159.913C195.675 159.909 195.142 159.797 194.647 159.585C194.151 159.373 193.703 159.065 193.327 158.677Z" fill="white"/>
<path d="M302.996 158.288C302.617 157.911 302.317 157.463 302.113 156.97C301.908 156.477 301.803 155.948 301.803 155.414C301.803 154.88 301.908 154.351 302.113 153.858C302.317 153.365 302.617 152.916 302.996 152.539L327.209 128.342C327.577 127.93 328.026 127.598 328.527 127.365C329.028 127.133 329.571 127.005 330.123 126.989C330.675 126.974 331.224 127.071 331.737 127.275C332.251 127.479 332.717 127.786 333.107 128.177C333.498 128.567 333.804 129.033 334.009 129.546C334.213 130.06 334.31 130.609 334.295 131.161C334.279 131.713 334.151 132.256 333.919 132.757C333.686 133.258 333.354 133.706 332.942 134.074L308.744 158.288C307.979 159.044 306.946 159.468 305.87 159.468C304.794 159.468 303.761 159.044 302.996 158.288Z" fill="white"/>
<path d="M327.648 158.677L303.434 134.464C303.047 134.089 302.738 133.64 302.526 133.145C302.314 132.649 302.203 132.116 302.199 131.577C302.195 131.038 302.298 130.503 302.503 130.005C302.708 129.506 303.01 129.053 303.392 128.673C303.774 128.292 304.227 127.991 304.727 127.788C305.226 127.584 305.761 127.482 306.3 127.488C306.839 127.493 307.371 127.606 307.866 127.819C308.361 128.033 308.809 128.343 309.183 128.731L333.38 152.929C333.769 153.303 334.079 153.75 334.292 154.245C334.506 154.74 334.618 155.273 334.624 155.812C334.629 156.351 334.527 156.886 334.324 157.385C334.12 157.884 333.819 158.338 333.439 158.719C333.058 159.101 332.605 159.403 332.107 159.608C331.608 159.813 331.074 159.916 330.534 159.913C329.995 159.909 329.463 159.797 328.967 159.585C328.471 159.373 328.023 159.065 327.648 158.677Z" fill="white"/>
<path d="M388.962 55.9586H392.587V61.0782H388.962V67.9996H382.612V61.0782H369.494L369.208 57.0792L382.546 36.0074H388.962V55.9586ZM375.537 55.9586H382.612V44.6647L382.194 45.3898L375.537 55.9586ZM417.548 54.7721C417.548 59.1959 416.633 62.5797 414.802 64.9235C412.971 67.2672 410.29 68.4391 406.76 68.4391C403.273 68.4391 400.607 67.2892 398.762 64.9894C396.916 62.6896 395.971 59.3937 395.927 55.1017V49.213C395.927 44.7452 396.85 41.3541 398.696 39.0397C400.556 36.7252 403.229 35.568 406.716 35.568C410.202 35.568 412.868 36.7179 414.714 39.0177C416.56 41.3029 417.504 44.5914 417.548 48.8834V54.7721ZM411.198 48.3121C411.198 45.6608 410.832 43.7345 410.1 42.5333C409.382 41.3175 408.254 40.7096 406.716 40.7096C405.222 40.7096 404.116 41.2882 403.398 42.4454C402.695 43.588 402.321 45.3824 402.277 47.8287V55.6071C402.277 58.2145 402.629 60.1554 403.332 61.4298C404.05 62.6896 405.192 63.3195 406.76 63.3195C408.312 63.3195 409.433 62.7115 410.122 61.4957C410.81 60.2799 411.169 58.4196 411.198 55.9147V48.3121ZM428.315 49.191H431.699C433.31 49.191 434.504 48.7882 435.28 47.9825C436.057 47.1769 436.445 46.1075 436.445 44.7745C436.445 43.4855 436.057 42.4821 435.28 41.7643C434.519 41.0465 433.464 40.6876 432.116 40.6876C430.9 40.6876 429.882 41.0245 429.062 41.6984C428.242 42.3575 427.832 43.2218 427.832 44.2911H421.481C421.481 42.6212 421.928 41.1271 422.822 39.8087C423.73 38.4757 424.99 37.4357 426.601 36.6886C428.227 35.9415 430.014 35.568 431.962 35.568C435.346 35.568 437.998 36.381 439.917 38.007C441.835 39.6183 442.795 41.8448 442.795 44.6866C442.795 46.1515 442.348 47.4991 441.455 48.7296C440.561 49.9601 439.389 50.9049 437.939 51.5641C439.741 52.2086 441.081 53.1754 441.96 54.4645C442.854 55.7535 443.3 57.277 443.3 59.0348C443.3 61.8766 442.26 64.1544 440.18 65.8683C438.115 67.5822 435.375 68.4391 431.962 68.4391C428.769 68.4391 426.154 67.5968 424.118 65.9122C422.097 64.2277 421.086 62.0011 421.086 59.2325H427.436C427.436 60.4337 427.883 61.4152 428.776 62.1769C429.685 62.9386 430.798 63.3195 432.116 63.3195C433.625 63.3195 434.804 62.924 435.654 62.1329C436.518 61.3273 436.95 60.2653 436.95 58.9469C436.95 55.7535 435.192 54.1569 431.677 54.1569H428.315V49.191Z" fill="white"/>
<path d="M218.743 227.617C217.724 227.616 216.744 227.231 215.997 226.538C215.251 225.846 214.793 224.897 214.715 223.882C213.578 210.061 218.824 182.859 246.74 178.897C255.461 177.679 262.753 179.676 268.405 184.873C281.673 197.069 280.357 222.712 280.309 223.849C280.279 224.382 280.144 224.904 279.912 225.386C279.681 225.867 279.357 226.298 278.959 226.653C278.561 227.009 278.096 227.283 277.592 227.46C277.088 227.636 276.554 227.712 276.021 227.682C275.488 227.652 274.966 227.517 274.485 227.286C274.004 227.054 273.573 226.73 273.217 226.332C272.861 225.934 272.587 225.47 272.411 224.966C272.234 224.462 272.159 223.928 272.189 223.394C272.189 223.167 273.342 200.496 262.899 190.915C259.067 187.407 254.162 186.14 247.877 187.017C220.464 190.768 222.689 221.9 222.803 223.248C222.888 224.321 222.544 225.383 221.847 226.202C221.15 227.021 220.156 227.53 219.084 227.617H218.743Z" fill="white"/>
<path d="M102.578 143.331C102.578 143.331 138.306 150.558 135.366 183.931C132.427 217.305 164.907 235.542 144.997 254.803C125.086 274.063 98.5503 263.231 98.5503 263.231L102.578 143.331Z" fill="#4094F7"/>
<path opacity="0.39" d="M102.578 143.331C102.578 143.331 138.306 150.558 135.366 183.931C132.427 217.305 164.907 235.542 144.997 254.803C125.086 274.063 98.5503 263.231 98.5503 263.231L102.578 143.331Z" fill="white"/>
<path d="M73.005 110.299C74.5153 114.189 75.4985 118.263 75.9282 122.414C75.9456 122.91 75.8647 123.405 75.6902 123.87C75.5157 124.335 75.2511 124.76 74.9115 125.122C74.572 125.485 74.1642 125.776 73.7116 125.98C73.259 126.184 72.7705 126.297 72.2742 126.312C70.6807 126.467 69.0763 126.156 67.6554 125.419C66.2344 124.681 65.0578 123.547 64.2679 122.154L60.2566 116.519C59.5736 115.302 59.2848 113.904 59.4303 112.517C59.5757 111.129 60.1482 109.821 61.0686 108.772C64.2842 104.696 71.5434 105.963 73.005 110.299Z" fill="#F4A28C"/>
<path d="M62.1079 117.931L62.4165 142.502L75.9444 141.365L70.2766 123.94L62.1079 117.931Z" fill="#F4A28C"/>
<path d="M61.0194 122.365C61.0602 122.517 61.1519 122.649 61.2791 122.741C61.4063 122.833 61.5612 122.878 61.7177 122.869C62.8056 122.853 63.8588 122.483 64.7175 121.815C65.5761 121.147 66.1935 120.217 66.476 119.166C66.8126 118.011 66.8077 116.782 66.4619 115.63C66.1161 114.477 65.4442 113.449 64.5272 112.67C66.8391 112.448 69.1172 111.957 71.3156 111.208C72.0578 110.96 72.7544 110.593 73.378 110.12L73.6216 104.176C73.6216 104.176 74.9858 97.9077 71.4617 97.6804C67.9376 97.453 67.4992 101.513 64.17 99.6292C60.8408 97.7453 59.9476 96.9496 57.674 99.1582C55.4004 101.367 59.0543 102.585 54.6858 103.835C50.3172 105.086 50.7232 106.905 51.2591 108.902C51.539 109.569 52.0147 110.135 52.6233 110.526C56.625 113.464 59.57 117.617 61.0194 122.365Z" fill="#24285B"/>
<path d="M67.1906 118.727C67.1906 118.727 66.3136 115.967 64.2999 116.795C62.2861 117.623 63.5203 121.667 66.4598 121.147L67.1906 118.727Z" fill="#F4A28C"/>
<path d="M74.5151 114.798L77.3247 116.974C77.4836 117.097 77.6091 117.258 77.6895 117.443C77.77 117.627 77.8028 117.829 77.785 118.029C77.7672 118.23 77.6994 118.423 77.5878 118.59C77.4761 118.757 77.3242 118.894 77.146 118.988L74.5476 120.319L74.5151 114.798Z" fill="#F4A28C"/>
<path opacity="0.31" d="M71.0558 126.279C69.1182 126.163 67.2414 125.559 65.5991 124.525C65.5991 124.525 66.4436 129.397 72.761 131.394L71.0558 126.279Z" fill="#CE8172"/>
<path d="M87.9621 140.132C65.6491 140.528 43.6236 145.238 23.0995 154.001C19.9529 155.331 17.1125 157.293 14.7537 159.764C12.395 162.235 10.5679 165.164 9.38534 168.369C8.20281 171.574 7.68993 174.988 7.87839 178.399C8.06685 181.81 8.95264 185.147 10.4811 188.202L45.7706 258.602L111.185 254.721C111.185 254.721 123.105 215.16 120.718 170.419C120.237 162.114 116.555 154.319 110.447 148.671C104.339 143.023 96.2795 139.962 87.9621 140.132Z" fill="#4094F7"/>
<path d="M45.7702 258.602L26.2822 366.241H36.0262L60.5324 307.777C69.2108 287.079 84.5129 269.846 104.039 258.781L111.217 254.705L45.7702 258.602Z" fill="#24285B"/>
<path opacity="0.08" d="M40.3624 163.355C44.9975 167.133 48.5792 172.043 50.7613 177.611C52.9434 183.178 53.6519 189.215 52.8185 195.136C49.8303 215.518 46.696 231.368 65.5344 226.609C84.3728 221.851 94.4903 178.166 94.4903 178.166L116.414 178.701L112.63 227.422L99.9145 228.298C96.906 228.504 94.0486 229.693 91.7829 231.683C89.5172 233.672 87.969 236.352 87.3772 239.309L83.9506 256.312L45.7703 258.57L40.3624 250.45L16.5383 224.726L13.5664 183.573L40.3624 163.355Z" fill="black"/>
<path d="M66.3374 219.711L108.821 222.685L112.894 164.497L70.4106 161.523L66.3374 219.711Z" fill="#FFD200"/>
<path d="M111.185 254.721L101.1 366.241H88.108C88.108 366.241 91.1449 282.329 67.6943 264.465L111.185 254.721Z" fill="#24285B"/>
<path d="M41.8238 169.656C41.7335 166.372 40.6305 163.197 38.6657 160.565C36.7009 157.932 33.9705 155.972 30.8483 154.951C27.7261 153.93 24.3647 153.9 21.2245 154.864C18.0843 155.827 15.3186 157.738 13.3064 160.334C5.80349 169.916 -1.11475 185.896 -0.546348 212.14C0.671652 268.168 33.5577 283.19 84.3077 221.884L74.3038 214.17C74.3038 214.17 54.3286 231.124 36.0261 231.368C22.3358 231.563 42.7495 196.387 41.8238 169.656Z" fill="#4094F7"/>
<path opacity="0.39" d="M41.8238 169.656C41.7335 166.372 40.6305 163.197 38.6657 160.565C36.7009 157.932 33.9705 155.972 30.8483 154.951C27.7261 153.93 24.3647 153.9 21.2245 154.864C18.0843 155.827 15.3186 157.738 13.3064 160.334C5.80349 169.916 -1.11475 185.896 -0.546348 212.14C0.671652 268.168 33.5577 283.19 84.3077 221.884L74.3038 214.17C74.3038 214.17 54.3286 231.124 36.0261 231.368C22.3358 231.563 42.7495 196.387 41.8238 169.656Z" fill="white"/>
<path opacity="0.08" d="M110.811 191.986C110.811 191.986 96.1954 218.831 66.9634 211.246L66.3301 220.649L108.716 223.524L110.811 191.986Z" fill="black"/>
<path d="M76.1553 215.583C76.1553 215.583 82.1316 205.027 89.4396 207.82C96.7476 210.613 84.3078 221.884 84.3078 221.884L76.1553 215.583Z" fill="#F4A28C"/>
<path opacity="0.58" d="M141.992 360.492C141.992 360.492 128.156 356.708 125.151 343.846C125.151 343.846 146.572 339.51 147.189 361.629L141.992 360.492Z" fill="#4094F7"/>
<path opacity="0.73" d="M143.681 359.111C143.681 359.111 134.018 343.846 142.528 329.555C142.528 329.555 158.768 339.916 151.574 359.144L143.681 359.111Z" fill="#4094F7"/>
<path d="M146.166 359.128C146.166 359.128 151.282 343.002 166.71 339.949C166.71 339.949 169.6 350.423 156.722 359.177L146.166 359.128Z" fill="#4094F7"/>
<path d="M136.146 358.771L138.939 377.951L156.608 378.016L159.207 358.869L136.146 358.771Z" fill="#24285B"/>
<path opacity="0.08" d="M437.95 104.745H364.009V130.225H437.95V104.745Z" fill="black"/>
<path d="M442.188 246.812H431.681V352.567H442.188V246.812Z" fill="#E6E6E6"/>
<path d="M437.934 191.125L395.628 255.939H437.934H480.255L437.934 191.125Z" fill="#FFD200"/>
<path d="M452.826 343.506H422.148V378.032H452.826V343.506Z" fill="#24285B"/>
<path d="M440.597 215.226H434.588V234.714H440.597V215.226Z" fill="#24285B"/>
<path d="M440.597 238.513H434.588V244.522H440.597V238.513Z" fill="#24285B"/>
</g>
<defs>
<clipPath id="clip0_231_708">
<rect width="480" height="385.6" fill="white" transform="translate(0 0.200012)"/>
</clipPath>
</defs>
</svg>
