<svg width="505" height="300" viewBox="0 0 505 300" fill="none" xmlns="http://www.w3.org/2000/svg">
<path d="M98.0597 52.7829H419.642C426.023 52.7829 432.142 55.3177 436.654 59.8296C441.166 64.3415 443.701 70.4609 443.701 76.8417V273.244H73.9507V76.8417C73.9507 73.6781 74.5746 70.5454 75.7868 67.6232C76.999 64.701 78.7757 62.0465 81.0151 59.8118C83.2545 57.5771 85.9126 55.8059 88.8374 54.5998C91.7621 53.3937 94.8961 52.7763 98.0597 52.7829Z" fill="white"/>
<path d="M443.702 273.998H73.9516C73.7519 273.998 73.5604 273.919 73.4192 273.777C73.278 273.636 73.1987 273.445 73.1987 273.245V76.8425C73.2032 70.2589 75.8204 63.9463 80.4757 59.291C85.131 54.6357 91.4436 52.0185 98.0272 52.014H419.643C426.225 52.0229 432.535 54.6416 437.189 59.2959C441.844 63.9502 444.462 70.2603 444.471 76.8425V273.245C444.467 273.446 444.384 273.638 444.24 273.778C444.096 273.919 443.903 273.998 443.702 273.998ZM74.7547 272.475H442.932V76.8425C442.928 70.6672 440.472 64.746 436.106 60.3794C431.739 56.0128 425.818 53.5577 419.643 53.5533H98.0606C91.8838 53.5577 85.9609 56.0123 81.5916 60.3784C77.2224 64.7445 74.7636 70.6656 74.7547 76.8425V272.475Z" fill="#231F20"/>
<path d="M420.596 72.5425H97.1069V273.245H420.596V72.5425Z" fill="#4094F7"/>
<path d="M474.519 274.098H43.1666C43.0371 274.135 42.9008 274.141 42.7684 274.117C42.636 274.092 42.5112 274.037 42.4037 273.956C42.2962 273.875 42.209 273.77 42.1489 273.649C42.0889 273.529 42.0576 273.396 42.0576 273.261C42.0576 273.127 42.0889 272.994 42.1489 272.873C42.209 272.753 42.2962 272.648 42.4037 272.567C42.5112 272.486 42.636 272.431 42.7684 272.406C42.9008 272.381 43.0371 272.388 43.1666 272.425H474.519C474.649 272.388 474.785 272.381 474.917 272.406C475.05 272.431 475.175 272.486 475.282 272.567C475.39 272.648 475.477 272.753 475.537 272.873C475.597 272.994 475.628 273.127 475.628 273.261C475.628 273.396 475.597 273.529 475.537 273.649C475.477 273.77 475.39 273.875 475.282 273.956C475.175 274.037 475.05 274.092 474.917 274.117C474.785 274.141 474.649 274.135 474.519 274.098Z" fill="#231F20"/>
<path d="M35.5369 273.245H482.148C482.148 280.344 479.328 287.153 474.308 292.173C469.287 297.194 462.478 300.014 455.379 300.014H62.2058C55.1061 300.014 48.2972 297.194 43.277 292.173C38.2568 287.153 35.4365 280.344 35.4365 273.245H35.5369Z" fill="white"/>
<path d="M455.429 300.733H62.2561C54.9713 300.72 47.9889 297.819 42.8393 292.666C37.6897 287.513 34.793 280.529 34.7842 273.244C34.7841 273.043 34.8629 272.85 35.0036 272.706C35.1444 272.562 35.3359 272.479 35.5371 272.475H482.148C482.351 272.479 482.544 272.562 482.688 272.705C482.831 272.848 482.914 273.042 482.918 273.244C482.909 280.532 480.01 287.519 474.857 292.672C469.704 297.825 462.717 300.724 455.429 300.733ZM36.3234 273.964C36.5277 280.712 39.3506 287.116 44.1941 291.819C49.0377 296.522 55.5216 299.155 62.2728 299.16H455.446C462.196 299.151 468.677 296.516 473.52 291.814C478.363 287.112 481.187 280.711 481.395 273.964H36.3234Z" fill="#231F20"/>
<path d="M295.065 273.245H222.637V279.92H295.065V273.245Z" fill="black"/>
<path d="M112.231 92.5354C115.215 92.5354 117.635 90.116 117.635 87.1314C117.635 84.1468 115.215 81.7274 112.231 81.7274C109.246 81.7274 106.827 84.1468 106.827 87.1314C106.827 90.116 109.246 92.5354 112.231 92.5354Z" fill="#231F20"/>
<path d="M130.534 92.5354C133.519 92.5354 135.938 90.116 135.938 87.1314C135.938 84.1468 133.519 81.7274 130.534 81.7274C127.55 81.7274 125.13 84.1468 125.13 87.1314C125.13 90.116 127.55 92.5354 130.534 92.5354Z" fill="white"/>
<path d="M148.854 92.5354C151.839 92.5354 154.258 90.116 154.258 87.1314C154.258 84.1468 151.839 81.7274 148.854 81.7274C145.87 81.7274 143.45 84.1468 143.45 87.1314C143.45 90.116 145.87 92.5354 148.854 92.5354Z" fill="white"/>
<path d="M200.502 169.799C200.139 169.801 199.779 169.731 199.443 169.594C199.107 169.456 198.802 169.253 198.545 168.996C198.032 168.473 197.745 167.77 197.745 167.038C197.745 166.306 198.032 165.603 198.545 165.081L219.525 144.1C220.045 143.584 220.748 143.294 221.48 143.296C222.213 143.297 222.915 143.59 223.432 144.109C223.949 144.628 224.238 145.331 224.237 146.064C224.235 146.796 223.943 147.498 223.424 148.015L202.443 168.996C202.188 169.251 201.886 169.453 201.553 169.59C201.22 169.728 200.863 169.799 200.502 169.799Z" fill="white"/>
<path d="M221.483 169.799C220.75 169.8 220.047 169.511 219.526 168.996L198.545 148.015C198.026 147.498 197.734 146.796 197.732 146.064C197.73 145.331 198.02 144.628 198.537 144.109C199.054 143.59 199.756 143.297 200.488 143.296C201.221 143.294 201.924 143.584 202.443 144.1L223.424 165.081C223.811 165.466 224.075 165.957 224.183 166.493C224.291 167.028 224.238 167.583 224.03 168.089C223.823 168.594 223.47 169.026 223.016 169.33C222.563 169.635 222.029 169.798 221.483 169.799Z" fill="white"/>
<path d="M296.303 169.799C295.756 169.801 295.22 169.64 294.764 169.337C294.308 169.034 293.952 168.602 293.742 168.096C293.533 167.59 293.478 167.034 293.585 166.497C293.693 165.96 293.958 165.467 294.346 165.081L315.326 144.1C315.583 143.844 315.888 143.642 316.224 143.504C316.559 143.365 316.918 143.295 317.281 143.296C317.644 143.296 318.003 143.369 318.338 143.508C318.673 143.648 318.977 143.852 319.233 144.109C319.489 144.366 319.692 144.671 319.83 145.006C319.968 145.342 320.038 145.701 320.038 146.064C320.037 146.427 319.965 146.786 319.825 147.121C319.686 147.455 319.481 147.759 319.224 148.015L298.244 168.996C297.989 169.251 297.687 169.453 297.354 169.59C297.021 169.728 296.664 169.799 296.303 169.799Z" fill="white"/>
<path d="M317.2 169.799C316.837 169.801 316.477 169.731 316.141 169.594C315.805 169.456 315.499 169.253 315.242 168.996L294.262 148.015C294.005 147.759 293.801 147.455 293.661 147.121C293.522 146.786 293.45 146.427 293.449 146.064C293.448 145.701 293.519 145.342 293.657 145.006C293.795 144.671 293.998 144.366 294.254 144.109C294.51 143.852 294.814 143.648 295.149 143.508C295.483 143.369 295.842 143.296 296.205 143.296C296.568 143.295 296.927 143.365 297.263 143.504C297.598 143.642 297.903 143.844 298.16 144.1L319.141 165.081C319.528 165.466 319.792 165.957 319.9 166.493C320.008 167.028 319.955 167.583 319.747 168.088C319.539 168.594 319.186 169.026 318.733 169.33C318.28 169.635 317.746 169.798 317.2 169.799Z" fill="white"/>
<path d="M420.362 101.219H97.3248C97.103 101.219 96.8902 101.131 96.7333 100.974C96.5764 100.817 96.4883 100.605 96.4883 100.383C96.4883 100.161 96.5764 99.9482 96.7333 99.7913C96.8902 99.6345 97.103 99.5463 97.3248 99.5463H420.362C420.584 99.5463 420.797 99.6345 420.954 99.7913C421.111 99.9482 421.199 100.161 421.199 100.383C421.199 100.605 421.111 100.817 420.954 100.974C420.797 101.131 420.584 101.219 420.362 101.219Z" fill="white"/>
<path d="M163.443 217.063C162.605 217.168 161.758 216.953 161.073 216.46C160.387 215.967 159.913 215.233 159.745 214.406C159.578 213.578 159.73 212.717 160.171 211.997C160.612 211.277 161.308 210.749 162.122 210.521C192.708 197.513 225.604 190.808 258.842 190.808C292.08 190.808 324.976 197.513 355.563 210.521C355.975 210.695 356.348 210.948 356.663 211.266C356.977 211.584 357.225 211.961 357.394 212.375C357.562 212.789 357.648 213.232 357.645 213.679C357.642 214.126 357.552 214.568 357.378 214.98C357.204 215.392 356.951 215.766 356.633 216.08C356.315 216.394 355.939 216.642 355.525 216.811C355.111 216.98 354.667 217.065 354.22 217.062C353.773 217.06 353.331 216.969 352.919 216.795C323.168 204.147 291.171 197.628 258.842 197.628C226.513 197.628 194.517 204.147 164.765 216.795C164.345 216.966 163.897 217.057 163.443 217.063Z" fill="white"/>
<path d="M117.386 158.241H12.4838C5.92332 158.241 0.60498 163.56 0.60498 170.12V226.436C0.60498 232.997 5.92332 238.315 12.4838 238.315H117.386C123.946 238.315 129.265 232.997 129.265 226.436V170.12C129.265 163.56 123.946 158.241 117.386 158.241Z" fill="white"/>
<path d="M117.936 238.847H13.0176C9.64666 238.842 6.41502 237.501 4.03138 235.118C1.64774 232.734 0.306673 229.502 0.302246 226.132V169.816C0.306673 166.445 1.64774 163.213 4.03138 160.829C6.41502 158.446 9.64666 157.105 13.0176 157.1H117.936C121.307 157.105 124.539 158.446 126.923 160.829C129.306 163.213 130.647 166.445 130.652 169.816V226.132C130.647 229.502 129.306 232.734 126.923 235.118C124.539 237.501 121.307 238.842 117.936 238.847ZM13.0176 158.773C10.0904 158.778 7.2843 159.943 5.21443 162.013C3.14455 164.082 1.97975 166.888 1.97532 169.816V226.132C1.97975 229.059 3.14455 231.865 5.21443 233.935C7.2843 236.005 10.0904 237.169 13.0176 237.174H117.936C120.864 237.169 123.67 236.005 125.74 233.935C127.809 231.865 128.974 229.059 128.979 226.132V169.816C128.974 166.888 127.809 164.082 125.74 162.013C123.67 159.943 120.864 158.778 117.936 158.773H13.0176Z" fill="#D1D3D4"/>
<path d="M495.469 115.384H392.609C387.314 115.384 383.022 119.676 383.022 124.971V160.792C383.022 166.086 387.314 170.378 392.609 170.378H495.469C500.764 170.378 505.056 166.086 505.056 160.792V124.971C505.056 119.676 500.764 115.384 495.469 115.384Z" fill="white"/>
<path d="M494.881 171.622H392.003C389.24 171.617 386.592 170.518 384.638 168.564C382.684 166.61 381.585 163.962 381.58 161.198V125.395C381.585 122.632 382.684 119.983 384.638 118.029C386.592 116.075 389.24 114.976 392.003 114.971H494.881C497.644 114.976 500.292 116.075 502.246 118.029C504.2 119.983 505.3 122.632 505.304 125.395V161.198C505.3 163.962 504.2 166.61 502.246 168.564C500.292 170.518 497.644 171.617 494.881 171.622ZM392.003 116.644C389.683 116.644 387.457 117.566 385.816 119.207C384.175 120.848 383.253 123.074 383.253 125.395V161.198C383.253 163.519 384.175 165.745 385.816 167.386C387.457 169.027 389.683 169.949 392.003 169.949H494.881C497.202 169.949 499.427 169.027 501.068 167.386C502.709 165.745 503.631 163.519 503.631 161.198V125.395C503.631 123.074 502.709 120.848 501.068 119.207C499.427 117.566 497.202 116.644 494.881 116.644H392.003Z" fill="#D1D3D4"/>
<path d="M79.1038 53.6201C78.9277 53.6214 78.7564 53.5624 78.6186 53.4528C78.4421 53.3195 78.3243 53.1228 78.29 52.9044C78.2556 52.6859 78.3075 52.4626 78.4345 52.2816C81.4293 48.1826 85.1268 42.2431 82.3663 37.5251C82.2812 37.3739 82.1862 37.2286 82.0818 37.0901C79.04 40.7643 75.4241 43.9225 71.3742 46.4426C69.2313 47.9936 66.5952 48.7077 63.9624 48.4503C63.4033 48.3369 62.8731 48.1108 62.4042 47.7858C61.9353 47.4607 61.5376 47.0435 61.2353 46.5597C60.8512 45.8668 60.613 45.1027 60.5353 44.3143C60.4576 43.5259 60.5421 42.73 60.7836 41.9754C60.9217 41.4384 61.1007 40.9126 61.319 40.4028C57.7998 43.9226 53.8209 46.9504 49.4903 49.4039C48.5543 50.0062 47.4574 50.3096 46.3449 50.2739C45.4512 50.0884 44.6419 49.6178 44.0385 48.933C43.4351 48.2481 43.0703 47.386 42.9988 46.476C42.9052 44.8472 43.2519 43.2232 44.0026 41.7747C46.9466 35.4074 51.5112 29.9249 57.2397 25.8759C62.9682 21.8269 69.6596 19.3534 76.6443 18.7029C77.8891 15.5792 78.0598 12.1301 77.1295 8.89872C76.6738 7.32512 75.8175 5.89669 74.6445 4.75301C73.4715 3.60933 72.0219 2.78952 70.4372 2.37372C67.4123 2.01311 64.3499 2.59754 61.6703 4.0468C47.2477 10.6109 35.4591 21.8455 28.2088 35.9356C27.6465 36.8215 27.345 37.8478 27.3388 38.897C27.3664 39.1336 27.4413 39.3621 27.5592 39.5691C27.677 39.7761 27.8354 39.9572 28.0247 40.1016C28.1222 40.1864 28.2374 40.2484 28.3618 40.2831C28.4862 40.3178 28.6169 40.3244 28.7442 40.3024C28.966 40.2602 29.1955 40.3079 29.3822 40.435C29.5689 40.5621 29.6975 40.7581 29.7396 40.98C29.7818 41.2018 29.7341 41.4314 29.607 41.618C29.4799 41.8047 29.2839 41.9333 29.062 41.9754C28.6963 42.0583 28.3169 42.0608 27.9501 41.9828C27.5832 41.9048 27.2377 41.7482 26.9372 41.5237C26.2063 40.9467 25.7315 40.1054 25.6155 39.1814C25.5705 37.8007 25.9375 36.4379 26.6695 35.2664C34.1051 20.8196 46.1945 9.3019 60.9843 2.57449C63.8955 1.26949 67.3253 -0.00205058 70.7384 0.700642C72.6373 1.16249 74.3816 2.1149 75.7968 3.46259C77.2121 4.81028 78.2486 6.50599 78.8026 8.38006C79.7599 11.7345 79.6369 15.3052 78.4513 18.5858C79.5555 18.5858 80.6597 18.5858 81.7974 18.5858C82.8724 18.5923 83.9294 18.8623 84.8759 19.3722C87.0509 20.7274 87.168 23.6051 87.0509 25.1945C86.709 28.9633 85.3564 32.5701 83.1359 35.6345C83.389 35.9458 83.6183 36.2758 83.8218 36.6216C87.0676 42.1428 83.0857 48.7347 79.8065 53.2185C79.7341 53.3405 79.6313 53.4417 79.5081 53.5121C79.385 53.5824 79.2456 53.6196 79.1038 53.6201ZM75.9082 20.4429C69.361 21.1985 63.1188 23.6273 57.7826 27.4953C52.4465 31.3634 48.1963 36.5403 45.4415 42.5276C44.8263 43.7084 44.5266 45.0282 44.5715 46.3589C44.6038 46.9057 44.8118 47.4273 45.1645 47.8464C45.5172 48.2654 45.9958 48.5593 46.529 48.6845C47.3036 48.6777 48.0595 48.4452 48.704 48.0153C55.5803 44.2843 61.1015 38.4954 66.4218 32.9576C69.8349 29.1429 73.6663 25.1945 75.9082 20.4429ZM74.5195 33.8276C73.6655 33.8249 72.8135 33.909 71.9765 34.0785C69.772 34.4725 67.7165 35.4593 66.0305 36.9331C64.3445 38.4069 63.0917 40.312 62.4065 42.4439C62.2237 42.9903 62.1518 43.5677 62.1949 44.1423C62.238 44.7168 62.3952 45.277 62.6574 45.7901C62.8397 46.0875 63.0831 46.3428 63.3716 46.5389C63.66 46.7351 63.9869 46.8676 64.3305 46.9277C66.51 47.1064 68.6831 46.5143 70.4707 45.2547C74.4627 42.7209 78.0027 39.5371 80.9442 35.8353C79.1086 34.4167 76.8384 33.6777 74.5195 33.7439V33.8276ZM74.5195 32.1545C77.2041 32.0802 79.8326 32.9308 81.9647 34.5637C83.8879 31.7909 85.0424 28.5583 85.3109 25.1945C85.3109 24.2241 85.3109 21.8483 83.9222 20.9281C83.2128 20.5668 82.4262 20.3831 81.6301 20.3928C80.343 20.3175 79.0525 20.3175 77.7653 20.3928C75.5401 25.6295 71.508 29.9293 67.8774 33.7774C69.0589 33.1993 70.306 32.7667 71.5917 32.4891C72.5394 32.25 73.5094 32.1098 74.4861 32.0708L74.5195 32.1545Z" fill="#D1D3D4"/>
</svg>
