<svg width="161" height="160" viewBox="0 0 161 160" fill="none" xmlns="http://www.w3.org/2000/svg">
<path d="M160.75 80C160.75 124.183 124.933 160 80.75 160C36.5672 160 0.75 124.183 0.75 80C0.75 35.8172 36.5672 0 80.75 0C124.933 0 160.75 35.8172 160.75 80ZM20.75 80C20.75 113.137 47.6129 140 80.75 140C113.887 140 140.75 113.137 140.75 80C140.75 46.8629 113.887 20 80.75 20C47.6129 20 20.75 46.8629 20.75 80Z" fill="#1AC19D" fill-opacity="0.1"/>
<path d="M150.5 80C156.023 80 160.564 84.4944 159.876 89.9742C158.463 101.218 154.672 112.073 148.711 121.8C141.002 134.38 129.965 144.582 116.819 151.281C103.674 157.979 88.9316 160.911 74.2233 159.753C59.515 158.596 45.4133 153.393 33.4772 144.721C21.5411 136.049 12.2357 124.245 6.58965 110.615C0.943614 96.984 -0.823067 82.0574 1.48493 67.4853C3.79292 52.9131 10.0857 39.2631 19.6675 28.0442C27.0764 19.3694 36.2287 12.4095 46.4855 7.59131C51.4842 5.2431 57.1621 8.17352 58.8688 13.4261C60.5754 18.6786 57.6457 24.2489 52.7491 26.8033C45.9621 30.3439 39.8871 35.1654 34.8756 41.0331C27.6893 49.4473 22.9697 59.6849 21.2387 70.614C19.5077 81.5431 20.8327 92.738 25.0672 102.961C29.3018 113.184 36.2808 122.037 45.2329 128.541C54.1849 135.045 64.7612 138.947 75.7925 139.815C86.8237 140.683 97.8801 138.484 107.739 133.46C117.599 128.437 125.877 120.785 131.658 111.35C135.69 104.77 138.399 97.5029 139.669 89.9539C140.585 84.5076 144.977 80 150.5 80Z" fill="#1AC19D"/>
<path d="M57.6051 89H61.4148L68.6591 74.6051V71.5455H56.4119V74.5625H64.8409V74.6818L57.6051 89ZM77.3288 89.2386C81.2152 89.2386 83.8572 86.7074 83.8487 83.179C83.8572 79.8381 81.522 77.4347 78.3771 77.4347C76.843 77.4347 75.522 78.0739 74.9084 78.9347H74.8061L75.2578 74.5625H82.8857V71.5455H72.2152L71.3885 80.75L74.6697 81.3381C75.2067 80.6136 76.2464 80.1619 77.2777 80.1619C79.0334 80.1705 80.2947 81.4403 80.2947 83.2727C80.2947 85.0881 79.0589 86.3409 77.3288 86.3409C75.8629 86.3409 74.6783 85.4205 74.593 84.0653H71.0135C71.0817 87.0824 73.7152 89.2386 77.3288 89.2386ZM95.9766 85.7273C95.9851 87.8239 97.3232 89.6051 99.8203 89.6051C102.292 89.6051 103.673 87.8239 103.664 85.7273V84.8068C103.673 82.6932 102.326 80.929 99.8203 80.929C97.3572 80.929 95.9851 82.7102 95.9766 84.8068V85.7273ZM87.0192 75.7386C87.0277 77.8352 88.3658 79.5994 90.8544 79.5994C93.3345 79.5994 94.7152 77.8523 94.7067 75.7386V74.8182C94.7152 72.7045 93.3686 70.9403 90.8544 70.9403C88.4169 70.9403 87.0277 72.7045 87.0192 74.8182V75.7386ZM87.8544 89H90.0788L102.079 71.5455H99.8544L87.8544 89ZM98.4567 84.8068C98.4652 83.9716 98.7976 83.1108 99.8203 83.1108C100.894 83.1108 101.175 83.9716 101.167 84.8068V85.7273C101.175 86.5625 100.86 87.4062 99.8203 87.4062C98.7805 87.4062 98.4652 86.5369 98.4567 85.7273V84.8068ZM89.5163 74.8182C89.5249 74.0085 89.8402 73.1222 90.8544 73.1222C91.9283 73.1222 92.218 73.983 92.2095 74.8182V75.7386C92.218 76.5739 91.8942 77.4176 90.8544 77.4176C89.8487 77.4176 89.5249 76.5739 89.5163 75.7386V74.8182Z" fill="#1AC19D"/>
</svg>
