<svg width="161" height="160" viewBox="0 0 161 160" fill="none" xmlns="http://www.w3.org/2000/svg">
<path d="M160.75 80C160.75 124.183 124.933 160 80.75 160C36.5672 160 0.75 124.183 0.75 80C0.75 35.8172 36.5672 0 80.75 0C124.933 0 160.75 35.8172 160.75 80ZM20.75 80C20.75 113.137 47.6129 140 80.75 140C113.887 140 140.75 113.137 140.75 80C140.75 46.8629 113.887 20 80.75 20C47.6129 20 20.75 46.8629 20.75 80Z" fill="#A23FEE" fill-opacity="0.1"/>
<path d="M45.5 140.622C42.7386 145.405 36.5754 147.091 32.1741 143.754C21.464 135.636 12.9262 124.914 7.41636 112.539C0.544818 97.1052 -1.26434 79.8922 2.24819 63.3671C5.76072 46.8419 14.4146 31.8529 26.9695 20.5484C37.0365 11.4841 49.1972 5.16177 62.2833 2.10157C67.661 0.84398 72.6057 4.89088 73.183 10.3835C73.7603 15.8761 69.7364 20.7155 64.4157 22.196C55.5241 24.6702 47.2776 29.1756 40.3522 35.4113C30.9359 43.8897 24.4455 55.1314 21.8111 67.5253C19.1767 79.9192 20.5336 92.8289 25.6873 104.404C29.4777 112.918 35.1788 120.388 42.2953 126.265C46.5538 129.781 48.2614 135.839 45.5 140.622Z" fill="#A23FEE"/>
<path d="M56.6506 85.9318H65.0284V89H68.5568V85.9318H70.7216V82.9744H68.5568V71.5455H63.9375L56.6506 83.0256V85.9318ZM65.0966 82.9744H60.3665V82.8381L64.9602 75.5682H65.0966V82.9744ZM80.0241 89.3835C84.4134 89.3835 87.0639 86.0426 87.0724 80.2898C87.081 74.5795 84.3963 71.3068 80.0241 71.3068C75.6435 71.3068 72.9844 74.571 72.9759 80.2898C72.9588 86.0256 75.6264 89.375 80.0241 89.3835ZM80.0241 86.3239C78.0213 86.3239 76.7259 84.3125 76.7344 80.2898C76.7429 76.3267 78.0298 74.3324 80.0241 74.3324C82.0099 74.3324 83.3054 76.3267 83.3054 80.2898C83.3139 84.3125 82.0185 86.3239 80.0241 86.3239ZM99.2578 85.7273C99.2663 87.8239 100.604 89.6051 103.102 89.6051C105.573 89.6051 106.954 87.8239 106.945 85.7273V84.8068C106.954 82.6932 105.607 80.929 103.102 80.929C100.638 80.929 99.2663 82.7102 99.2578 84.8068V85.7273ZM90.3004 75.7386C90.3089 77.8352 91.647 79.5994 94.1357 79.5994C96.6158 79.5994 97.9964 77.8523 97.9879 75.7386V74.8182C97.9964 72.7045 96.6499 70.9403 94.1357 70.9403C91.6982 70.9403 90.3089 72.7045 90.3004 74.8182V75.7386ZM91.1357 89H93.3601L105.36 71.5455H103.136L91.1357 89ZM101.738 84.8068C101.746 83.9716 102.079 83.1108 103.102 83.1108C104.175 83.1108 104.457 83.9716 104.448 84.8068V85.7273C104.457 86.5625 104.141 87.4062 103.102 87.4062C102.062 87.4062 101.746 86.5369 101.738 85.7273V84.8068ZM92.7976 74.8182C92.8061 74.0085 93.1214 73.1222 94.1357 73.1222C95.2095 73.1222 95.4993 73.983 95.4908 74.8182V75.7386C95.4993 76.5739 95.1754 77.4176 94.1357 77.4176C93.13 77.4176 92.8061 76.5739 92.7976 75.7386V74.8182Z" fill="#A23FEE"/>
</svg>
